<mxfile host="app.diagrams.net" modified="2023-05-14T15:59:02.699Z" agent="Mozilla/5.0 (Windows NT 10.0; Win64; x64) AppleWebKit/537.36 (KHTML, like Gecko) Chrome/112.0.0.0 Safari/537.36" etag="b5IgAwgLDE5GyOgKXXEP" version="21.2.9" type="google">
  <diagram id="C5RBs43oDa-KdzZeNtuy" name="Page-1">
    <mxGraphModel grid="1" page="1" gridSize="10" guides="1" tooltips="1" connect="1" arrows="1" fold="1" pageScale="1" pageWidth="827" pageHeight="1169" math="0" shadow="0">
      <root>
        <mxCell id="WIyWlLk6GJQsqaUBKTNV-0" />
        <mxCell id="WIyWlLk6GJQsqaUBKTNV-1" parent="WIyWlLk6GJQsqaUBKTNV-0" />
        <mxCell id="WIyWlLk6GJQsqaUBKTNV-2" value="" style="rounded=0;html=1;jettySize=auto;orthogonalLoop=1;fontSize=11;endArrow=classic;endFill=1;endSize=8;strokeWidth=1;shadow=0;labelBackgroundColor=none;edgeStyle=orthogonalEdgeStyle;entryX=0.5;entryY=0;entryDx=0;entryDy=0;" edge="1" parent="WIyWlLk6GJQsqaUBKTNV-1" source="WIyWlLk6GJQsqaUBKTNV-3" target="u_tl5Y1li-qFTIlrTDrz-3">
          <mxGeometry relative="1" as="geometry">
            <mxPoint x="414" y="160" as="targetPoint" />
            <Array as="points">
              <mxPoint x="414" y="110" />
              <mxPoint x="414" y="110" />
            </Array>
          </mxGeometry>
        </mxCell>
        <mxCell id="WIyWlLk6GJQsqaUBKTNV-3" value="30 Papers" style="rounded=1;whiteSpace=wrap;html=1;fontSize=12;glass=0;strokeWidth=1;shadow=0;" vertex="1" parent="WIyWlLk6GJQsqaUBKTNV-1">
          <mxGeometry x="344" y="50" width="120" height="40" as="geometry" />
        </mxCell>
        <mxCell id="u_tl5Y1li-qFTIlrTDrz-0" value="30 Papers" style="rounded=1;whiteSpace=wrap;html=1;fontSize=12;glass=0;strokeWidth=1;shadow=0;" vertex="1" parent="WIyWlLk6GJQsqaUBKTNV-1">
          <mxGeometry x="354" y="60" width="120" height="40" as="geometry" />
        </mxCell>
        <mxCell id="u_tl5Y1li-qFTIlrTDrz-1" value="30 Papers" style="rounded=1;whiteSpace=wrap;html=1;fontSize=12;glass=0;strokeWidth=1;shadow=0;" vertex="1" parent="WIyWlLk6GJQsqaUBKTNV-1">
          <mxGeometry x="364" y="70" width="120" height="40" as="geometry" />
        </mxCell>
        <mxCell id="u_tl5Y1li-qFTIlrTDrz-35" style="edgeStyle=orthogonalEdgeStyle;rounded=0;orthogonalLoop=1;jettySize=auto;html=1;exitX=0.5;exitY=1;exitDx=0;exitDy=0;entryX=0.5;entryY=0;entryDx=0;entryDy=0;" edge="1" parent="WIyWlLk6GJQsqaUBKTNV-1" source="u_tl5Y1li-qFTIlrTDrz-3" target="u_tl5Y1li-qFTIlrTDrz-33">
          <mxGeometry relative="1" as="geometry" />
        </mxCell>
        <mxCell id="u_tl5Y1li-qFTIlrTDrz-36" style="edgeStyle=orthogonalEdgeStyle;rounded=0;orthogonalLoop=1;jettySize=auto;html=1;exitX=0.5;exitY=1;exitDx=0;exitDy=0;entryX=0.543;entryY=-0.022;entryDx=0;entryDy=0;entryPerimeter=0;" edge="1" parent="WIyWlLk6GJQsqaUBKTNV-1" source="u_tl5Y1li-qFTIlrTDrz-3" target="u_tl5Y1li-qFTIlrTDrz-34">
          <mxGeometry relative="1" as="geometry" />
        </mxCell>
        <mxCell id="u_tl5Y1li-qFTIlrTDrz-43" style="edgeStyle=orthogonalEdgeStyle;rounded=0;orthogonalLoop=1;jettySize=auto;html=1;exitX=0.5;exitY=1;exitDx=0;exitDy=0;" edge="1" parent="WIyWlLk6GJQsqaUBKTNV-1" source="u_tl5Y1li-qFTIlrTDrz-3" target="u_tl5Y1li-qFTIlrTDrz-39">
          <mxGeometry relative="1" as="geometry" />
        </mxCell>
        <mxCell id="u_tl5Y1li-qFTIlrTDrz-3" value="IAOSGrupo.py" style="rounded=0;whiteSpace=wrap;html=1;" vertex="1" parent="WIyWlLk6GJQsqaUBKTNV-1">
          <mxGeometry x="354" y="150" width="120" height="40" as="geometry" />
        </mxCell>
        <mxCell id="u_tl5Y1li-qFTIlrTDrz-41" style="edgeStyle=orthogonalEdgeStyle;rounded=0;orthogonalLoop=1;jettySize=auto;html=1;exitX=0.5;exitY=1;exitDx=0;exitDy=0;" edge="1" parent="WIyWlLk6GJQsqaUBKTNV-1" source="u_tl5Y1li-qFTIlrTDrz-6" target="u_tl5Y1li-qFTIlrTDrz-8">
          <mxGeometry relative="1" as="geometry" />
        </mxCell>
        <mxCell id="u_tl5Y1li-qFTIlrTDrz-42" style="edgeStyle=orthogonalEdgeStyle;rounded=0;orthogonalLoop=1;jettySize=auto;html=1;exitX=0.5;exitY=1;exitDx=0;exitDy=0;entryX=0.5;entryY=0;entryDx=0;entryDy=0;" edge="1" parent="WIyWlLk6GJQsqaUBKTNV-1" source="u_tl5Y1li-qFTIlrTDrz-6" target="u_tl5Y1li-qFTIlrTDrz-28">
          <mxGeometry relative="1" as="geometry" />
        </mxCell>
        <mxCell id="u_tl5Y1li-qFTIlrTDrz-6" value="SparkIAOS.ipynb" style="rounded=0;whiteSpace=wrap;html=1;" vertex="1" parent="WIyWlLk6GJQsqaUBKTNV-1">
          <mxGeometry x="260" y="480" width="120" height="40" as="geometry" />
        </mxCell>
        <mxCell id="u_tl5Y1li-qFTIlrTDrz-55" style="edgeStyle=orthogonalEdgeStyle;rounded=0;orthogonalLoop=1;jettySize=auto;html=1;exitX=0.5;exitY=1;exitDx=0;exitDy=0;entryX=0.25;entryY=0;entryDx=0;entryDy=0;" edge="1" parent="WIyWlLk6GJQsqaUBKTNV-1" source="u_tl5Y1li-qFTIlrTDrz-8" target="u_tl5Y1li-qFTIlrTDrz-19">
          <mxGeometry relative="1" as="geometry" />
        </mxCell>
        <mxCell id="u_tl5Y1li-qFTIlrTDrz-8" value="cleaned.txt" style="rounded=1;whiteSpace=wrap;html=1;fontSize=12;glass=0;strokeWidth=1;shadow=0;" vertex="1" parent="WIyWlLk6GJQsqaUBKTNV-1">
          <mxGeometry x="157" y="600" width="120" height="40" as="geometry" />
        </mxCell>
        <mxCell id="u_tl5Y1li-qFTIlrTDrz-24" value="" style="edgeStyle=orthogonalEdgeStyle;rounded=0;orthogonalLoop=1;jettySize=auto;html=1;" edge="1" parent="WIyWlLk6GJQsqaUBKTNV-1" source="u_tl5Y1li-qFTIlrTDrz-19" target="u_tl5Y1li-qFTIlrTDrz-21">
          <mxGeometry relative="1" as="geometry" />
        </mxCell>
        <mxCell id="u_tl5Y1li-qFTIlrTDrz-66" style="edgeStyle=orthogonalEdgeStyle;rounded=0;orthogonalLoop=1;jettySize=auto;html=1;exitX=0.5;exitY=1;exitDx=0;exitDy=0;entryX=0.533;entryY=-0.007;entryDx=0;entryDy=0;entryPerimeter=0;" edge="1" parent="WIyWlLk6GJQsqaUBKTNV-1" source="u_tl5Y1li-qFTIlrTDrz-19" target="u_tl5Y1li-qFTIlrTDrz-65">
          <mxGeometry relative="1" as="geometry" />
        </mxCell>
        <mxCell id="u_tl5Y1li-qFTIlrTDrz-19" value="TopicIAOS" style="rounded=0;whiteSpace=wrap;html=1;" vertex="1" parent="WIyWlLk6GJQsqaUBKTNV-1">
          <mxGeometry x="267" y="740" width="120" height="40" as="geometry" />
        </mxCell>
        <mxCell id="u_tl5Y1li-qFTIlrTDrz-51" style="edgeStyle=orthogonalEdgeStyle;rounded=0;orthogonalLoop=1;jettySize=auto;html=1;exitX=0.5;exitY=1;exitDx=0;exitDy=0;entryX=0.5;entryY=0;entryDx=0;entryDy=0;" edge="1" parent="WIyWlLk6GJQsqaUBKTNV-1" source="u_tl5Y1li-qFTIlrTDrz-20" target="u_tl5Y1li-qFTIlrTDrz-22">
          <mxGeometry relative="1" as="geometry" />
        </mxCell>
        <mxCell id="u_tl5Y1li-qFTIlrTDrz-52" style="edgeStyle=orthogonalEdgeStyle;rounded=0;orthogonalLoop=1;jettySize=auto;html=1;exitX=0.5;exitY=1;exitDx=0;exitDy=0;entryX=0.5;entryY=0;entryDx=0;entryDy=0;" edge="1" parent="WIyWlLk6GJQsqaUBKTNV-1" source="u_tl5Y1li-qFTIlrTDrz-20" target="u_tl5Y1li-qFTIlrTDrz-23">
          <mxGeometry relative="1" as="geometry" />
        </mxCell>
        <mxCell id="u_tl5Y1li-qFTIlrTDrz-20" value="WikiDataYOpenAlex.ipynb" style="rounded=0;whiteSpace=wrap;html=1;" vertex="1" parent="WIyWlLk6GJQsqaUBKTNV-1">
          <mxGeometry x="590" y="470" width="166" height="40" as="geometry" />
        </mxCell>
        <mxCell id="u_tl5Y1li-qFTIlrTDrz-62" style="edgeStyle=orthogonalEdgeStyle;rounded=0;orthogonalLoop=1;jettySize=auto;html=1;exitX=0.5;exitY=1;exitDx=0;exitDy=0;entryX=0.337;entryY=-0.015;entryDx=0;entryDy=0;entryPerimeter=0;" edge="1" parent="WIyWlLk6GJQsqaUBKTNV-1" source="u_tl5Y1li-qFTIlrTDrz-21" target="u_tl5Y1li-qFTIlrTDrz-56">
          <mxGeometry relative="1" as="geometry">
            <Array as="points">
              <mxPoint x="250" y="940" />
              <mxPoint x="320" y="940" />
              <mxPoint x="320" y="1039" />
            </Array>
          </mxGeometry>
        </mxCell>
        <mxCell id="u_tl5Y1li-qFTIlrTDrz-21" value="Topic_words.txt" style="rounded=1;whiteSpace=wrap;html=1;fontSize=12;glass=0;strokeWidth=1;shadow=0;" vertex="1" parent="WIyWlLk6GJQsqaUBKTNV-1">
          <mxGeometry x="190" y="856" width="120" height="40" as="geometry" />
        </mxCell>
        <mxCell id="u_tl5Y1li-qFTIlrTDrz-59" style="edgeStyle=orthogonalEdgeStyle;rounded=0;orthogonalLoop=1;jettySize=auto;html=1;exitX=0.5;exitY=1;exitDx=0;exitDy=0;entryX=0.627;entryY=-0.02;entryDx=0;entryDy=0;entryPerimeter=0;" edge="1" parent="WIyWlLk6GJQsqaUBKTNV-1" source="u_tl5Y1li-qFTIlrTDrz-22" target="u_tl5Y1li-qFTIlrTDrz-56">
          <mxGeometry relative="1" as="geometry">
            <Array as="points">
              <mxPoint x="595" y="950" />
              <mxPoint x="355" y="950" />
              <mxPoint x="355" y="1000" />
            </Array>
          </mxGeometry>
        </mxCell>
        <mxCell id="u_tl5Y1li-qFTIlrTDrz-22" value="resultadoWikiData.txt" style="rounded=1;whiteSpace=wrap;html=1;fontSize=12;glass=0;strokeWidth=1;shadow=0;" vertex="1" parent="WIyWlLk6GJQsqaUBKTNV-1">
          <mxGeometry x="530" y="610" width="130" height="40" as="geometry" />
        </mxCell>
        <mxCell id="u_tl5Y1li-qFTIlrTDrz-61" style="edgeStyle=orthogonalEdgeStyle;rounded=0;orthogonalLoop=1;jettySize=auto;html=1;exitX=0.5;exitY=1;exitDx=0;exitDy=0;entryX=0.836;entryY=-0.025;entryDx=0;entryDy=0;entryPerimeter=0;" edge="1" parent="WIyWlLk6GJQsqaUBKTNV-1" source="u_tl5Y1li-qFTIlrTDrz-23" target="u_tl5Y1li-qFTIlrTDrz-56">
          <mxGeometry relative="1" as="geometry">
            <Array as="points">
              <mxPoint x="770" y="960" />
              <mxPoint x="380" y="960" />
              <mxPoint x="380" y="1039" />
            </Array>
          </mxGeometry>
        </mxCell>
        <mxCell id="u_tl5Y1li-qFTIlrTDrz-23" value="resultadoOpenAlex.txt" style="rounded=1;whiteSpace=wrap;html=1;fontSize=12;glass=0;strokeWidth=1;shadow=0;" vertex="1" parent="WIyWlLk6GJQsqaUBKTNV-1">
          <mxGeometry x="700" y="610" width="140" height="40" as="geometry" />
        </mxCell>
        <mxCell id="u_tl5Y1li-qFTIlrTDrz-30" style="edgeStyle=orthogonalEdgeStyle;rounded=0;orthogonalLoop=1;jettySize=auto;html=1;exitX=0.5;exitY=1;exitDx=0;exitDy=0;entryX=0.75;entryY=0;entryDx=0;entryDy=0;" edge="1" parent="WIyWlLk6GJQsqaUBKTNV-1" source="u_tl5Y1li-qFTIlrTDrz-28" target="u_tl5Y1li-qFTIlrTDrz-19">
          <mxGeometry relative="1" as="geometry" />
        </mxCell>
        <mxCell id="u_tl5Y1li-qFTIlrTDrz-28" value="cleanedTitles.txt" style="rounded=1;whiteSpace=wrap;html=1;fontSize=12;glass=0;strokeWidth=1;shadow=0;" vertex="1" parent="WIyWlLk6GJQsqaUBKTNV-1">
          <mxGeometry x="363" y="600" width="120" height="40" as="geometry" />
        </mxCell>
        <mxCell id="u_tl5Y1li-qFTIlrTDrz-49" style="edgeStyle=orthogonalEdgeStyle;rounded=0;orthogonalLoop=1;jettySize=auto;html=1;exitX=0.5;exitY=1;exitDx=0;exitDy=0;entryX=0.5;entryY=0;entryDx=0;entryDy=0;" edge="1" parent="WIyWlLk6GJQsqaUBKTNV-1" source="u_tl5Y1li-qFTIlrTDrz-33" target="u_tl5Y1li-qFTIlrTDrz-6">
          <mxGeometry relative="1" as="geometry" />
        </mxCell>
        <mxCell id="u_tl5Y1li-qFTIlrTDrz-53" style="edgeStyle=orthogonalEdgeStyle;rounded=0;orthogonalLoop=1;jettySize=auto;html=1;exitX=0.75;exitY=1;exitDx=0;exitDy=0;" edge="1" parent="WIyWlLk6GJQsqaUBKTNV-1" source="u_tl5Y1li-qFTIlrTDrz-33" target="u_tl5Y1li-qFTIlrTDrz-20">
          <mxGeometry relative="1" as="geometry" />
        </mxCell>
        <mxCell id="u_tl5Y1li-qFTIlrTDrz-54" style="edgeStyle=orthogonalEdgeStyle;rounded=0;orthogonalLoop=1;jettySize=auto;html=1;exitX=0.25;exitY=1;exitDx=0;exitDy=0;entryX=0.681;entryY=0;entryDx=0;entryDy=0;entryPerimeter=0;" edge="1" parent="WIyWlLk6GJQsqaUBKTNV-1" source="u_tl5Y1li-qFTIlrTDrz-33" target="u_tl5Y1li-qFTIlrTDrz-44">
          <mxGeometry relative="1" as="geometry" />
        </mxCell>
        <mxCell id="u_tl5Y1li-qFTIlrTDrz-33" value="order.txt" style="rounded=1;whiteSpace=wrap;html=1;fontSize=12;glass=0;strokeWidth=1;shadow=0;" vertex="1" parent="WIyWlLk6GJQsqaUBKTNV-1">
          <mxGeometry x="260" y="260" width="120" height="40" as="geometry" />
        </mxCell>
        <mxCell id="u_tl5Y1li-qFTIlrTDrz-37" style="edgeStyle=orthogonalEdgeStyle;rounded=0;orthogonalLoop=1;jettySize=auto;html=1;exitX=0.5;exitY=1;exitDx=0;exitDy=0;entryX=0.75;entryY=0;entryDx=0;entryDy=0;" edge="1" parent="WIyWlLk6GJQsqaUBKTNV-1" source="u_tl5Y1li-qFTIlrTDrz-34" target="u_tl5Y1li-qFTIlrTDrz-6">
          <mxGeometry relative="1" as="geometry">
            <Array as="points">
              <mxPoint x="524" y="440" />
              <mxPoint x="350" y="440" />
            </Array>
          </mxGeometry>
        </mxCell>
        <mxCell id="u_tl5Y1li-qFTIlrTDrz-34" value="abstract.txt" style="rounded=1;whiteSpace=wrap;html=1;fontSize=12;glass=0;strokeWidth=1;shadow=0;" vertex="1" parent="WIyWlLk6GJQsqaUBKTNV-1">
          <mxGeometry x="464" y="260" width="120" height="40" as="geometry" />
        </mxCell>
        <mxCell id="u_tl5Y1li-qFTIlrTDrz-45" style="edgeStyle=orthogonalEdgeStyle;rounded=0;orthogonalLoop=1;jettySize=auto;html=1;exitX=0.5;exitY=1;exitDx=0;exitDy=0;entryX=0.5;entryY=0;entryDx=0;entryDy=0;" edge="1" parent="WIyWlLk6GJQsqaUBKTNV-1" source="u_tl5Y1li-qFTIlrTDrz-39" target="u_tl5Y1li-qFTIlrTDrz-44">
          <mxGeometry relative="1" as="geometry" />
        </mxCell>
        <mxCell id="u_tl5Y1li-qFTIlrTDrz-39" value="acknowledges.txt" style="rounded=1;whiteSpace=wrap;html=1;fontSize=12;glass=0;strokeWidth=1;shadow=0;" vertex="1" parent="WIyWlLk6GJQsqaUBKTNV-1">
          <mxGeometry x="70" y="260" width="120" height="40" as="geometry" />
        </mxCell>
        <mxCell id="u_tl5Y1li-qFTIlrTDrz-48" value="" style="edgeStyle=orthogonalEdgeStyle;rounded=0;orthogonalLoop=1;jettySize=auto;html=1;" edge="1" parent="WIyWlLk6GJQsqaUBKTNV-1" source="u_tl5Y1li-qFTIlrTDrz-44" target="u_tl5Y1li-qFTIlrTDrz-47">
          <mxGeometry relative="1" as="geometry" />
        </mxCell>
        <mxCell id="u_tl5Y1li-qFTIlrTDrz-44" value="NER.ipynb" style="rounded=0;whiteSpace=wrap;html=1;" vertex="1" parent="WIyWlLk6GJQsqaUBKTNV-1">
          <mxGeometry x="47" y="360" width="166" height="40" as="geometry" />
        </mxCell>
        <mxCell id="u_tl5Y1li-qFTIlrTDrz-57" style="edgeStyle=orthogonalEdgeStyle;rounded=0;orthogonalLoop=1;jettySize=auto;html=1;exitX=0.5;exitY=1;exitDx=0;exitDy=0;entryX=0.167;entryY=0;entryDx=0;entryDy=0;entryPerimeter=0;" edge="1" parent="WIyWlLk6GJQsqaUBKTNV-1" source="u_tl5Y1li-qFTIlrTDrz-47" target="u_tl5Y1li-qFTIlrTDrz-56">
          <mxGeometry relative="1" as="geometry">
            <mxPoint x="300" y="1010" as="targetPoint" />
            <Array as="points">
              <mxPoint x="130" y="950" />
              <mxPoint x="300" y="950" />
            </Array>
          </mxGeometry>
        </mxCell>
        <mxCell id="u_tl5Y1li-qFTIlrTDrz-47" value="title_Ner.txt" style="rounded=1;whiteSpace=wrap;html=1;fontSize=12;glass=0;strokeWidth=1;shadow=0;" vertex="1" parent="WIyWlLk6GJQsqaUBKTNV-1">
          <mxGeometry x="70" y="480" width="120" height="40" as="geometry" />
        </mxCell>
        <mxCell id="u_tl5Y1li-qFTIlrTDrz-69" value="" style="edgeStyle=orthogonalEdgeStyle;rounded=0;orthogonalLoop=1;jettySize=auto;html=1;" edge="1" parent="WIyWlLk6GJQsqaUBKTNV-1" source="u_tl5Y1li-qFTIlrTDrz-56" target="u_tl5Y1li-qFTIlrTDrz-68">
          <mxGeometry relative="1" as="geometry" />
        </mxCell>
        <mxCell id="u_tl5Y1li-qFTIlrTDrz-56" value="Grafo.py" style="rounded=0;whiteSpace=wrap;html=1;" vertex="1" parent="WIyWlLk6GJQsqaUBKTNV-1">
          <mxGeometry x="280" y="1040" width="120" height="40" as="geometry" />
        </mxCell>
        <mxCell id="u_tl5Y1li-qFTIlrTDrz-67" style="edgeStyle=orthogonalEdgeStyle;rounded=0;orthogonalLoop=1;jettySize=auto;html=1;exitX=0.5;exitY=1;exitDx=0;exitDy=0;entryX=0.5;entryY=0;entryDx=0;entryDy=0;" edge="1" parent="WIyWlLk6GJQsqaUBKTNV-1" source="u_tl5Y1li-qFTIlrTDrz-65" target="u_tl5Y1li-qFTIlrTDrz-56">
          <mxGeometry relative="1" as="geometry">
            <Array as="points">
              <mxPoint x="447" y="940" />
              <mxPoint x="340" y="940" />
            </Array>
          </mxGeometry>
        </mxCell>
        <mxCell id="u_tl5Y1li-qFTIlrTDrz-65" value="Title_topic_prop.txt" style="rounded=1;whiteSpace=wrap;html=1;fontSize=12;glass=0;strokeWidth=1;shadow=0;" vertex="1" parent="WIyWlLk6GJQsqaUBKTNV-1">
          <mxGeometry x="387" y="856" width="120" height="40" as="geometry" />
        </mxCell>
        <mxCell id="u_tl5Y1li-qFTIlrTDrz-71" value="" style="edgeStyle=orthogonalEdgeStyle;rounded=0;orthogonalLoop=1;jettySize=auto;html=1;" edge="1" parent="WIyWlLk6GJQsqaUBKTNV-1" source="u_tl5Y1li-qFTIlrTDrz-68" target="u_tl5Y1li-qFTIlrTDrz-70">
          <mxGeometry relative="1" as="geometry" />
        </mxCell>
        <mxCell id="u_tl5Y1li-qFTIlrTDrz-68" value="Query" style="rhombus;whiteSpace=wrap;html=1;" vertex="1" parent="WIyWlLk6GJQsqaUBKTNV-1">
          <mxGeometry x="300" y="1130" width="80" height="80" as="geometry" />
        </mxCell>
        <mxCell id="u_tl5Y1li-qFTIlrTDrz-70" value="queryResults" style="rounded=1;whiteSpace=wrap;html=1;fontSize=12;glass=0;strokeWidth=1;shadow=0;" vertex="1" parent="WIyWlLk6GJQsqaUBKTNV-1">
          <mxGeometry x="280" y="1250" width="120" height="40" as="geometry" />
        </mxCell>
      </root>
    </mxGraphModel>
  </diagram>
</mxfile>
